<svg width="131" height="19" viewBox="0 0 131 19" fill="none" xmlns="http://www.w3.org/2000/svg">
<path d="M0.716 18V0.983999H0.956L7.724 8.964L14.444 0.983999H14.708V18H11.732V10.824L11.84 7.992L10.988 9.288L7.7 13.152L4.412 9.288L3.56 7.992L3.692 10.824V18H0.716ZM18.2174 18V1.272H26.9534V3.888H21.2174V7.8H25.7774V10.344H21.2174V15.288H27.4334V18H18.2174ZM41.6049 18.336L33.5889 9.192L32.8449 8.232L32.9649 10.56V18H30.0129V0.983999H30.2769L38.1729 10.2L39.0129 11.292L38.8929 9V1.272H41.8449V18.336H41.6049ZM47.9071 18V3.984H44.0431V1.272H54.8671V3.984H51.0031V18H47.9071ZM57.1706 18V1.272H60.2426V18H57.1706ZM70.0138 18.288C68.5018 18.288 67.2258 17.932 66.1858 17.22C65.1538 16.5 64.3698 15.492 63.8338 14.196C63.2978 12.9 63.0298 11.376 63.0298 9.624C63.0298 7.888 63.2938 6.372 63.8218 5.076C64.3498 3.78 65.1258 2.776 66.1498 2.064C67.1818 1.344 68.4458 0.983999 69.9418 0.983999C71.5018 0.983999 72.7978 1.348 73.8298 2.076C74.8698 2.804 75.6498 3.816 76.1698 5.112C76.6898 6.408 76.9498 7.912 76.9498 9.624C76.9498 11.376 76.6818 12.9 76.1458 14.196C75.6098 15.492 74.8258 16.5 73.7938 17.22C72.7618 17.932 71.5018 18.288 70.0138 18.288ZM70.0138 15.72C71.0618 15.72 71.9458 15.216 72.6658 14.208C73.3938 13.192 73.7578 11.64 73.7578 9.552C73.7578 7.544 73.4178 6.032 72.7378 5.016C72.0658 3.992 71.1338 3.48 69.9418 3.48C68.7818 3.48 67.8738 3.992 67.2178 5.016C66.5698 6.04 66.2458 7.56 66.2458 9.576C66.2458 11.664 66.5898 13.212 67.2778 14.22C67.9738 15.22 68.8858 15.72 70.0138 15.72ZM91.1986 18.336L83.1826 9.192L82.4386 8.232L82.5586 10.56V18H79.6066V0.983999H79.8706L87.7666 10.2L88.6066 11.292L88.4866 9V1.272H91.4386V18.336H91.1986ZM97.5009 18V3.984H93.6369V1.272H104.461V3.984H100.597V18H97.5009ZM103.85 18L110.93 0.983999H111.17L118.274 18H115.01L114.074 15.576H108.098L107.21 18H103.85ZM110.642 8.688L108.962 13.248H113.186L111.434 8.688L111.026 7.344L110.642 8.688ZM119.591 18V1.272H124.055C126.023 1.272 127.455 1.664 128.351 2.448C129.247 3.224 129.695 4.32 129.695 5.736C129.695 6.368 129.543 7.012 129.239 7.668C128.935 8.324 128.435 8.816 127.739 9.144C128.691 9.376 129.395 9.84 129.851 10.536C130.307 11.232 130.535 12.112 130.535 13.176C130.535 14.648 130.031 15.82 129.023 16.692C128.015 17.564 126.383 18 124.127 18H119.591ZM124.055 3.648H122.615V8.28H124.559C125.103 8.28 125.531 8.152 125.843 7.896C126.163 7.632 126.387 7.312 126.515 6.936C126.651 6.552 126.719 6.184 126.719 5.832C126.719 5.256 126.591 4.812 126.335 4.5C126.087 4.18 125.759 3.96 125.351 3.84C124.943 3.712 124.511 3.648 124.055 3.648ZM124.319 10.512H122.615V15.576H124.463C124.943 15.576 125.403 15.512 125.843 15.384C126.291 15.256 126.655 15.008 126.935 14.64C127.223 14.272 127.367 13.728 127.367 13.008C127.367 12.28 127.215 11.74 126.911 11.388C126.615 11.028 126.231 10.792 125.759 10.68C125.295 10.568 124.815 10.512 124.319 10.512Z" fill="black"/>
</svg>
